<?xml version="1.0" ?><svg data-name="Layer 1" height="24" id="Layer_1" viewBox="0 0 24 24" width="24" xmlns="http://www.w3.org/2000/svg"><title/><path d="M17.3381,11.8108c0,1.6154-.0563,3.2689-1.1041,4.3381A5.92793,5.92793,0,1,1,7.8428,7.7741c1.0699-1.0526,2.5703-.9616,4.1898-.9616C15.3065,6.8125,17.3381,8.5369,17.3381,11.8108Z" style="fill:#4c9ae8;fill-rule:evenodd"/><path d="M12,6.072A5.90909,5.90909,0,0,0,7.8083,7.8083l8.3834,8.3834A5.928,5.928,0,0,0,12,6.072Z" style="fill:#67c7a5;fill-rule:evenodd"/><ellipse cx="16.5" cy="5" rx="1.5" ry="3" style="fill:#67c7a5"/><ellipse cx="19" cy="7.5" rx="3" ry="1.5" style="fill:#67c7a5"/><ellipse cx="7.5" cy="19" rx="1.5" ry="3" style="fill:#4c9ae8"/><ellipse cx="5" cy="16.5" rx="3" ry="1.5" style="fill:#4c9ae8"/><circle cx="10" cy="9.9398" r="2" style="fill:#fff"/></svg>